<svg width="39" height="44" viewBox="0 0 39 44" fill="none" xmlns="http://www.w3.org/2000/svg">
<path d="M3.11522 23.996V29.312C3.11522 30.368 2.97122 30.608 2.34722 30.608C2.15522 30.608 1.97522 30.584 1.63922 30.536V32C2.21522 32.096 2.40722 32.12 2.71922 32.12C3.45122 32.12 4.01522 31.94 4.33922 31.58C4.73522 31.16 4.86722 30.584 4.86722 29.312V23.996H3.11522ZM6.34584 23.996V28.568C6.34584 30.116 6.47784 30.764 6.88584 31.304C7.30584 31.832 8.07384 32.12 9.08184 32.12C9.99384 32.12 10.7018 31.856 11.1698 31.352C11.6618 30.824 11.7818 30.26 11.7818 28.496V23.996H10.3058V28.568C10.3058 29.612 10.2938 29.828 10.1858 30.092C10.0418 30.488 9.71784 30.692 9.23784 30.692C8.74584 30.692 8.40984 30.488 8.24184 30.092C8.13384 29.84 8.09784 29.444 8.09784 28.568V23.996H6.34584ZM13.2951 23.996V32H15.0471V28.844H15.9231L16.9911 32H18.9111L17.4351 28.508C18.2391 28.028 18.5631 27.44 18.5631 26.42C18.5631 25.544 18.2511 24.836 17.6991 24.416C17.2311 24.08 16.8831 23.996 15.8031 23.996H13.2951ZM15.0471 25.292H15.7431C16.1271 25.292 16.3431 25.352 16.4991 25.484C16.7271 25.676 16.8471 26 16.8471 26.384C16.8471 27.14 16.4871 27.548 15.8151 27.548H15.0471V25.292ZM18.7773 23.996L20.7813 28.616V32H22.5333V28.616L24.7533 23.996H23.0373L21.8373 26.924L20.7093 23.996H18.7773ZM25.1176 23.996V32H26.4856V26.204L28.9096 32H30.4816V23.996H29.1136V28.964L27.0736 23.996H25.1176ZM36.8239 25.736C36.6079 25.064 36.4159 24.74 36.0319 24.44C35.5759 24.068 34.9639 23.876 34.2559 23.876C32.7079 23.876 31.6879 24.86 31.6879 26.324C31.6879 27.008 31.9519 27.584 32.4319 28.004C32.8279 28.328 33.0919 28.46 34.0999 28.82C34.9279 29.12 35.2039 29.372 35.2039 29.828C35.2039 30.344 34.7959 30.692 34.1839 30.692C33.5119 30.692 33.1279 30.332 32.8999 29.492L31.3639 29.924C31.7719 31.412 32.6719 32.12 34.1479 32.12C35.8399 32.12 36.9799 31.1 36.9799 29.564C36.9799 28.844 36.7039 28.256 36.1879 27.836C35.8399 27.548 35.5519 27.404 34.7719 27.104C33.6199 26.672 33.3919 26.492 33.3919 26.036C33.3919 25.604 33.7399 25.304 34.2319 25.304C34.7959 25.304 35.1439 25.604 35.3599 26.3L36.8239 25.736ZM9.20522 34.996V43H10.9572V40.048H11.5812C12.6132 40.048 13.1052 39.94 13.5732 39.628C14.1492 39.244 14.4852 38.476 14.4852 37.504C14.4852 36.568 14.1492 35.8 13.5492 35.392C13.1052 35.08 12.6492 34.996 11.4972 34.996H9.20522ZM10.9572 36.292H11.4972C11.9292 36.292 12.1332 36.34 12.3012 36.508C12.5052 36.7 12.6252 37.048 12.6252 37.456C12.6252 38.332 12.3132 38.668 11.4972 38.668H10.9572V36.292ZM15.3693 34.996V43H17.1213V39.844H17.9973L19.0653 43H20.9853L19.5093 39.508C20.3133 39.028 20.6373 38.44 20.6373 37.42C20.6373 36.544 20.3253 35.836 19.7733 35.416C19.3053 35.08 18.9573 34.996 17.8773 34.996H15.3693ZM17.1213 36.292H17.8173C18.2013 36.292 18.4173 36.352 18.5733 36.484C18.8013 36.676 18.9213 37 18.9213 37.384C18.9213 38.14 18.5613 38.548 17.8893 38.548H17.1213V36.292ZM21.9083 34.996V43H23.6603V34.996H21.9083ZM30.0739 36.736C29.8579 36.064 29.6659 35.74 29.2819 35.44C28.8259 35.068 28.2139 34.876 27.5059 34.876C25.9579 34.876 24.9379 35.86 24.9379 37.324C24.9379 38.008 25.2019 38.584 25.6819 39.004C26.0779 39.328 26.3419 39.46 27.3499 39.82C28.1779 40.12 28.4539 40.372 28.4539 40.828C28.4539 41.344 28.0459 41.692 27.4339 41.692C26.7619 41.692 26.3779 41.332 26.1499 40.492L24.6139 40.924C25.0219 42.412 25.9219 43.12 27.3979 43.12C29.0899 43.12 30.2299 42.1 30.2299 40.564C30.2299 39.844 29.9539 39.256 29.4379 38.836C29.0899 38.548 28.8019 38.404 28.0219 38.104C26.8699 37.672 26.6419 37.492 26.6419 37.036C26.6419 36.604 26.9899 36.304 27.4819 36.304C28.0459 36.304 28.3939 36.604 28.6099 37.3L30.0739 36.736Z" fill="#1C1B19"/>
<path d="M4.46484 9.49414V18.0376H4.48124L11.1098 9.49414H4.46484Z" fill="#1C1B19"/>
<path d="M4.48124 0H4.46484V8.5435H11.1098L4.48124 0Z" fill="#1C1B19"/>
<path d="M19.6567 18.0376L26.3016 9.49414H13.0117L19.6567 18.0376Z" fill="#1C1B19"/>
<path d="M34.9881 18.0376H35.0004V9.49414H28.3555L34.9881 18.0376Z" fill="#1C1B19"/>
<path d="M35.0004 8.5435V0H34.9881L28.3555 8.5435H35.0004Z" fill="#1C1B19"/>
<path d="M19.6567 0L13.0117 8.5435H26.3016L19.6567 0Z" fill="#1C1B19"/>
<path d="M20.918 18.0376H33.7332L27.3256 9.81055L20.918 18.0376Z" fill="#1C1B19"/>
<path d="M5.73047 18.0376H18.5457L12.136 9.81055L5.73047 18.0376Z" fill="#1C1B19"/>
</svg>
