<svg width="33" height="32" viewBox="0 0 33 32" fill="none" xmlns="http://www.w3.org/2000/svg">
<path d="M6.03872 24.736C5.82272 24.064 5.63072 23.74 5.24672 23.44C4.79072 23.068 4.17872 22.876 3.47072 22.876C1.92272 22.876 0.902719 23.86 0.902719 25.324C0.902719 26.008 1.16672 26.584 1.64672 27.004C2.04272 27.328 2.30672 27.46 3.31472 27.82C4.14272 28.12 4.41872 28.372 4.41872 28.828C4.41872 29.344 4.01072 29.692 3.39872 29.692C2.72672 29.692 2.34272 29.332 2.11472 28.492L0.578719 28.924C0.986719 30.412 1.88672 31.12 3.36272 31.12C5.05472 31.12 6.19472 30.1 6.19472 28.564C6.19472 27.844 5.91872 27.256 5.40272 26.836C5.05472 26.548 4.76672 26.404 3.98672 26.104C2.83472 25.672 2.60672 25.492 2.60672 25.036C2.60672 24.604 2.95472 24.304 3.44672 24.304C4.01072 24.304 4.35872 24.604 4.57472 25.3L6.03872 24.736ZM7.27163 22.996V31H9.02363V22.996H7.27163ZM10.5412 22.996V31H14.8732V29.5H12.2932V22.996H10.5412ZM14.5039 22.996L16.4239 31L18.3919 31.036L20.3599 22.996H18.8479L17.5759 29.092L16.3519 22.996H14.5039ZM21.1115 22.996V31H25.9715V29.572H22.8635V27.604H25.2875V26.224H22.8635V24.376H25.9715V22.996H21.1115ZM26.8302 22.996V31H28.5822V27.844H29.4582L30.5262 31H32.4462L30.9702 27.508C31.7742 27.028 32.0982 26.44 32.0982 25.42C32.0982 24.544 31.7862 23.836 31.2342 23.416C30.7662 23.08 30.4182 22.996 29.3382 22.996H26.8302ZM28.5822 24.292H29.2782C29.6622 24.292 29.8782 24.352 30.0342 24.484C30.2622 24.676 30.3822 25 30.3822 25.384C30.3822 26.14 30.0222 26.548 29.3502 26.548H28.5822V24.292Z" fill="#868686"/>
<path d="M1.46484 9.49414V18.0376H1.48124L8.10979 9.49414H1.46484Z" fill="#868686"/>
<path d="M1.48124 0H1.46484V8.5435H8.10979L1.48124 0Z" fill="#868686"/>
<path d="M16.6567 18.0376L23.3016 9.49414H10.0117L16.6567 18.0376Z" fill="#868686"/>
<path d="M31.9881 18.0376H32.0004V9.49414H25.3555L31.9881 18.0376Z" fill="#868686"/>
<path d="M32.0004 8.5435V0H31.9881L25.3555 8.5435H32.0004Z" fill="#868686"/>
<path d="M16.6567 0L10.0117 8.5435H23.3016L16.6567 0Z" fill="#868686"/>
<path d="M17.918 18.0376H30.7332L24.3256 9.81055L17.918 18.0376Z" fill="#868686"/>
<path d="M2.73047 18.0376H15.5457L9.13605 9.81055L2.73047 18.0376Z" fill="#868686"/>
</svg>
