<svg width="407" height="190" viewBox="0 0 407 190" fill="none" xmlns="http://www.w3.org/2000/svg">
<path d="M155.774 83.536H152.03V100H155.774V96.208L158.102 92.872L161.366 100H165.614L160.67 89.416L164.63 83.536H160.934L155.774 91.288V83.536ZM171.305 87.568C167.585 87.568 165.521 90.328 165.521 93.88C165.521 97.408 167.561 100.24 171.305 100.24C174.905 100.24 177.185 97.48 177.185 94C177.185 90.4 175.121 87.568 171.305 87.568ZM171.329 89.896C172.145 89.896 172.721 90.208 173.009 91C173.345 91.912 173.393 93.064 173.393 94.024C173.393 95.488 173.297 97.888 171.305 97.888C169.289 97.888 169.313 94.912 169.313 93.52C169.313 92.128 169.433 89.896 171.329 89.896ZM173.249 85.84C174.017 85.84 174.641 85.216 174.641 84.448C174.641 83.704 174.041 83.056 173.297 83.056C172.529 83.056 171.929 83.68 171.929 84.448C171.929 85.168 172.481 85.84 173.249 85.84ZM169.361 85.84C170.129 85.84 170.753 85.216 170.753 84.448C170.753 83.704 170.153 83.056 169.409 83.056C168.641 83.056 168.041 83.68 168.041 84.448C168.041 85.168 168.593 85.84 169.361 85.84ZM182.274 93.16C182.274 92.44 182.274 91.696 182.634 91.048C182.946 90.448 183.522 90.064 184.218 90.064C185.994 90.064 186.09 92.584 186.09 93.832C186.09 95.08 186.018 97.744 184.194 97.744C183.57 97.744 182.946 97.36 182.61 96.832C182.202 96.16 182.274 95.128 182.274 94.36V93.16ZM178.746 87.808V104.104H182.274V98.656H182.322C182.826 99.736 183.93 100.24 185.13 100.24C188.682 100.24 189.786 96.928 189.786 93.928C189.786 92.44 189.642 90.976 188.874 89.68C188.058 88.288 186.906 87.568 185.274 87.568C183.714 87.568 182.754 88.264 182.106 89.608H182.058V87.808H178.746ZM201.47 93.136C201.47 91.84 201.71 89.992 203.414 89.992C205.358 89.992 205.358 92.536 205.358 93.904C205.358 95.224 205.358 97.768 203.366 97.768C202.718 97.768 202.214 97.456 201.878 96.928C201.494 96.328 201.47 95.56 201.47 94.888V93.136ZM197.894 100H199.814C200.03 99.352 200.174 98.656 200.606 98.128C201.494 99.592 202.334 100.24 204.086 100.24C207.758 100.24 209.03 97.096 209.03 93.904C209.03 91.024 207.974 87.568 204.494 87.568C203.126 87.568 202.118 88.144 201.518 89.344H201.422V83.536H197.894V100ZM213.879 87.808H210.351V100H213.879V87.808ZM213.879 83.296H210.351V86.704H213.879V83.296ZM216.106 100H219.634V83.536H216.106V100ZM225.364 87.808H221.836V98.944C221.836 100 221.812 101.32 220.372 101.32C220.084 101.32 219.82 101.296 219.532 101.248V104.08C220.18 104.176 220.828 104.296 221.476 104.296C222.892 104.296 224.356 103.888 225.028 102.52C225.34 101.92 225.364 101.08 225.364 98.944V87.808ZM225.364 83.296H221.836V86.704H225.364V83.296ZM238.534 94.504C238.558 92.848 238.294 91.12 237.286 89.728C236.278 88.336 234.526 87.568 232.822 87.568C229.03 87.568 226.894 90.472 226.894 94.072C226.894 97.696 229.27 100.24 232.918 100.24C237.046 100.24 238.462 96.64 238.462 96.04L235.198 95.8C235.198 96.928 234.118 97.72 233.038 97.72C231.502 97.72 230.686 96.544 230.686 95.104L230.71 94.504H238.534ZM230.686 92.416C230.806 91.024 231.406 89.872 232.966 89.872C234.502 89.872 234.934 91.096 235.006 92.416H230.686ZM247.031 87.784H244.415V83.968L241.343 84.208L241.031 87.784H238.895V90.592H240.887V95.968C240.887 97.168 240.887 98.632 241.871 99.448C242.663 100.096 244.007 100.24 245.015 100.24C245.663 100.24 246.527 100.144 247.223 99.976V97.312C246.815 97.36 246.359 97.408 246.047 97.408C244.535 97.408 244.415 97.048 244.415 95.44V90.592H247.031V87.784ZM255.668 87.784H253.052V83.968L249.98 84.208L249.668 87.784H247.532V90.592H249.524V95.968C249.524 97.168 249.524 98.632 250.508 99.448C251.3 100.096 252.644 100.24 253.652 100.24C254.3 100.24 255.164 100.144 255.86 99.976V97.312C255.452 97.36 254.996 97.408 254.684 97.408C253.172 97.408 253.052 97.048 253.052 95.44V90.592H255.668V87.784Z" fill="#C29D25"/>
<rect x="0.5" y="0.5" width="406" height="189" stroke="#C29D25"/>
</svg>
