<svg width="346" height="183" viewBox="0 0 346 183" fill="none" xmlns="http://www.w3.org/2000/svg">
<path d="M259.08 10.496H261.888L264.408 17H268.68L265.632 9.728C267.408 9.08 268.488 7.352 268.488 5.48C268.488 3.872 267.744 2.264 266.4 1.376C265.128 0.559999 263.64 0.535999 262.176 0.535999H255.24V17H259.08V10.496ZM259.08 3.464H261.096C261.816 3.464 262.92 3.368 263.568 3.776C264.12 4.112 264.504 4.808 264.504 5.456C264.504 6.176 264.168 6.944 263.544 7.328C262.848 7.736 261.984 7.664 261.192 7.664H259.08V3.464ZM275.476 4.568C271.756 4.568 269.692 7.328 269.692 10.88C269.692 14.408 271.732 17.24 275.476 17.24C279.076 17.24 281.356 14.48 281.356 11C281.356 7.4 279.292 4.568 275.476 4.568ZM275.5 6.896C276.316 6.896 276.892 7.208 277.18 8C277.516 8.912 277.564 10.064 277.564 11.024C277.564 12.488 277.468 14.888 275.476 14.888C273.46 14.888 273.484 11.912 273.484 10.52C273.484 9.128 273.604 6.896 275.5 6.896ZM277.42 2.84C278.188 2.84 278.812 2.216 278.812 1.448C278.812 0.704 278.212 0.0559993 277.468 0.0559993C276.7 0.0559993 276.1 0.68 276.1 1.448C276.1 2.168 276.652 2.84 277.42 2.84ZM273.532 2.84C274.3 2.84 274.924 2.216 274.924 1.448C274.924 0.704 274.324 0.0559993 273.58 0.0559993C272.812 0.0559993 272.212 0.68 272.212 1.448C272.212 2.168 272.764 2.84 273.532 2.84ZM292.253 7.76C291.413 5.48 289.853 4.568 287.453 4.568C284.861 4.568 282.245 5.648 282.245 8.648C282.245 10.184 283.205 11.432 284.645 11.936C285.413 12.2 287.429 12.56 288.269 12.656C288.917 12.728 289.637 12.872 289.637 13.688C289.637 14.6 288.173 14.84 287.501 14.84C286.373 14.84 285.053 14.456 284.813 13.208L281.765 13.64C282.413 16.376 284.789 17.24 287.333 17.24C288.677 17.24 290.021 17 291.125 16.232C292.157 15.488 292.757 14.36 292.757 13.088C292.757 7.592 285.437 10.184 285.437 7.904C285.437 7.016 286.541 6.824 287.261 6.824C288.413 6.824 289.325 7.304 289.637 8.456L292.253 7.76ZM301.301 4.784H298.685V0.967999L295.613 1.208L295.301 4.784H293.165V7.592H295.157V12.968C295.157 14.168 295.157 15.632 296.141 16.448C296.933 17.096 298.277 17.24 299.285 17.24C299.933 17.24 300.797 17.144 301.493 16.976V14.312C301.085 14.36 300.629 14.408 300.317 14.408C298.805 14.408 298.685 14.048 298.685 12.44V7.592H301.301V4.784ZM313.802 17C313.61 16.4 313.562 15.8 313.562 15.176V9.488C313.562 8.024 313.682 6.68 312.434 5.672C311.45 4.856 309.818 4.568 308.57 4.568C306.002 4.568 303.122 5.432 302.762 8.384L306.098 8.696C306.098 7.496 307.082 6.92 308.21 6.92C308.738 6.92 309.338 7.088 309.65 7.496C310.01 7.952 309.962 8.576 309.962 9.104V9.392C308.474 9.536 306.53 9.632 305.138 10.16C303.53 10.76 302.402 11.984 302.402 13.784C302.402 16.088 304.082 17.24 306.242 17.24C308.066 17.24 309.122 16.544 310.13 15.104C310.106 15.728 310.154 16.376 310.298 17H313.802ZM309.962 11.648C309.962 12.512 309.986 13.232 309.482 14C309.074 14.624 308.426 15.008 307.706 15.008C306.722 15.008 306.146 14.36 306.146 13.4C306.146 11.624 308.618 11.312 309.962 11.168V11.648ZM322.078 17H325.606V10.448C325.606 9.68 325.654 8.984 326.014 8.288C326.302 7.736 326.878 7.376 327.502 7.376C329.278 7.376 329.11 9.2 329.11 10.448V17H332.638V9.464C332.638 8.36 332.638 6.824 331.966 5.912C331.246 4.928 330.118 4.568 328.966 4.568C327.19 4.568 326.182 5.312 325.462 6.872H325.414V4.808H322.078V17ZM345.023 17V4.808H341.495V11.36C341.495 11.984 341.543 12.68 341.303 13.232C340.991 13.952 340.319 14.408 339.527 14.408C338.279 14.408 338.183 13.472 338.183 12.488V4.808H334.655V12.488C334.655 13.664 334.583 14.816 335.255 15.872C335.951 16.976 337.007 17.24 338.231 17.24C339.887 17.24 341.135 16.448 341.711 14.912H341.759V17H345.023Z" fill="white"/>
<path d="M0.500007 181.976L0.500015 2.50003L230.546 2.5L0.500007 181.976Z" stroke="white"/>
</svg>
