<svg width="89" height="136" viewBox="0 0 89 136" fill="none" xmlns="http://www.w3.org/2000/svg">
<g clip-path="url(#clip0)">
<path d="M0.597656 88H5.24195C8.34592 88 14.5072 88.0349 14.5072 97.9938C14.5072 101.791 13.387 105.192 11.1932 106.858C9.39613 108.256 7.34238 108.256 5.79039 108.256H0.597656V88ZM4.90354 104.761H5.66203C7.42406 104.761 9.79288 104.552 9.79288 97.9239C9.79288 91.6924 7.45907 91.4827 5.66203 91.4827H4.90354V104.761Z" fill="white"/>
<path d="M29.3041 88V91.4943H21.5559V96.1768H27.5421V99.6711H21.5559V104.656H29.3041V108.267H17.25V88H29.3041Z" fill="white"/>
<path d="M40.3988 93.824C40.1538 93.0901 39.582 91.308 37.5399 91.308C36.0463 91.308 35.4045 92.3447 35.4045 93.16C35.4045 94.5578 36.7464 95.1402 38.9052 95.9671C41.1923 96.8524 44.5063 97.9939 44.5063 102.094C44.5063 105.553 42.0675 108.57 37.2949 108.57C35.8362 108.57 33.7708 108.291 32.1371 106.439C31.0052 105.134 30.6435 103.888 30.3984 103.002L34.2959 101.908C34.541 102.816 34.9844 104.948 37.4232 104.948C38.9402 104.948 40.0138 104.097 40.0138 102.758C40.0138 101.325 38.7302 100.65 37.2132 100.102C34.4476 99.1004 31.2269 98.0172 31.2269 93.8822C31.2269 90.7256 33.129 87.6855 37.5749 87.6855C42.6276 87.6855 43.6895 91.0634 44.1213 92.3913L40.3988 93.824Z" fill="white"/>
<path d="M51.9544 88V108.267H47.6719V88H51.9544Z" fill="white"/>
<path d="M70.0428 97.4464V108.256H68.1524L67.5689 105.949C67.1138 106.648 65.9003 108.558 62.7029 108.558C57.6502 108.558 55.3164 104.062 55.3164 98.4714C55.3164 95.4663 55.8532 87.6855 63.0997 87.6855C68.7242 87.6855 69.6344 91.6924 70.0311 94.616L66.0169 95.2799C65.8069 93.7657 65.5618 91.2964 63.193 91.2964C60.6725 91.2964 59.879 94.0336 59.879 98.1919C59.879 101.838 60.4275 104.936 63.3447 104.936C65.9353 104.936 65.9586 102.234 66.0169 100.929H62.9713V97.4348H70.0428V97.4464Z" fill="white"/>
<path d="M78.6977 88L83.9021 100.58V88H87.3445V108.267H83.3886L77.2157 93.591V108.267H73.75V88H78.6977Z" fill="white"/>
<path d="M6.39308 115.441C8.51685 115.441 10.7456 115.441 12.2626 116.991C13.6629 118.447 13.9663 120.392 13.9663 121.789C13.9663 123.793 13.4179 125.831 11.8309 127.043C10.3139 128.231 7.81671 128.231 6.56812 128.231H4.99279V135.709H0.546875V115.441H6.39308ZM4.99279 118.714V124.725H6.39308C7.94507 124.725 9.252 124.387 9.252 121.685C9.252 118.703 7.36161 118.703 6.39308 118.703H4.99279V118.714Z" fill="black"/>
<path d="M22.9378 115.441C24.9799 115.441 26.9519 115.441 28.5039 117.177C29.5658 118.365 29.9625 119.972 29.9625 121.58C29.9625 125.167 28.1072 126.262 27.1036 126.868L30.8494 135.709H25.9834L23.2762 127.718H21.024V135.709H16.5781V115.441H22.9378ZM21.024 118.714V124.422H23.0078C24.9215 124.422 25.6216 123.176 25.6216 121.51C25.6216 118.714 23.5796 118.714 22.8211 118.714H21.024Z" fill="black"/>
<path d="M39.0553 115.441V135.709H34.6094V115.441H39.0553Z" fill="black"/>
<path d="M52.7068 121.277C52.4618 120.543 51.89 118.761 49.8479 118.761C48.3543 118.761 47.7125 119.798 47.7125 120.613C47.7125 122.011 49.0544 122.5 51.2132 123.315C53.5003 124.201 56.8143 125.435 56.8143 129.547C56.8143 133.006 54.3755 136.012 49.6029 136.012C48.1442 136.012 45.9504 135.744 44.3051 133.88C43.1849 132.575 42.8115 131.329 42.5664 130.444L46.4639 129.349C46.7089 130.258 47.2807 132.389 49.7195 132.389C51.2365 132.389 52.3101 131.539 52.3101 130.199C52.3101 128.767 51.0265 128.196 49.5095 127.648C46.7439 126.647 43.3949 125.459 43.3949 121.335C43.3949 118.179 45.437 115.139 49.8712 115.139C54.924 115.139 55.9858 118.505 56.4176 119.844L52.7068 121.277Z" fill="black"/>
<path d="M72.6741 115.441V118.936H64.7975V123.618H70.9121V127.113H64.7975V132.098H72.6741V135.709H60.3516V115.441H72.6741Z" fill="black"/>
<path d="M87.3212 115.441V119.239H83.1787V135.709H78.7328V119.239H74.6836V115.441H87.3212Z" fill="black"/>
<path d="M8.02832 69.3746C7.84162 68.7923 7.37485 67.3829 5.76452 67.3829C4.58594 67.3829 4.07251 68.1982 4.07251 68.8505C4.07251 69.957 5.13439 70.3414 6.84974 70.9937C8.65845 71.6926 11.284 72.6826 11.284 75.9324C11.284 78.6812 9.35859 81.0574 5.56615 81.0574C4.41091 81.0574 2.67222 80.8361 1.36528 79.3685C0.478432 78.3318 0.198374 77.3418 0 76.6429L3.0923 75.7809C3.29068 76.5031 3.74577 78.192 5.67117 78.192C6.87308 78.192 7.72492 77.5165 7.72492 76.4565C7.72492 75.3267 6.70972 74.8724 5.5078 74.4298C3.31402 73.6377 0.665137 72.6943 0.665137 69.4212C0.665137 66.917 2.27547 64.5059 5.79953 64.5059C9.80202 64.5059 10.6422 67.1732 10.9806 68.2332L8.02832 69.3746Z" fill="black"/>
<path d="M15.7537 64.7617L18.2159 77.0152L20.7714 64.7617H23.8053L19.8495 80.9173L15.8937 80.8474L12.0312 64.7734H15.7537V64.7617Z" fill="black"/>
<path d="M35.2631 64.7617V67.5339H29.0202V71.2379H33.8628V74.0101H29.0202V77.9587H35.2631V80.8241H25.4961V64.7617H35.2631Z" fill="black"/>
<path d="M41.3191 64.7617L45.4383 74.7322V64.7617H48.1922V80.8124H45.0299L40.1289 69.1879V80.8124H37.375V64.7617H41.3191Z" fill="black"/>
<path d="M58.1923 69.3746C58.0056 68.7923 57.5389 67.3829 55.9285 67.3829C54.75 67.3829 54.2365 68.1982 54.2365 68.8505C54.2365 69.957 55.2984 70.3414 57.0138 70.9937C58.8225 71.6926 61.448 72.6826 61.448 75.9324C61.448 78.6812 59.5226 81.0574 55.7302 81.0574C54.5749 81.0574 52.8362 80.8361 51.5293 79.3685C50.6424 78.3318 50.3507 77.3418 50.1523 76.6429L53.2447 75.7809C53.443 76.5031 53.8981 78.192 55.8235 78.192C57.0254 78.192 57.8773 77.5165 57.8773 76.4565C57.8773 75.3267 56.8621 74.8724 55.6602 74.4298C53.4664 73.6377 50.8175 72.6943 50.8175 69.4212C50.8175 66.917 52.4278 64.5059 55.9519 64.5059C59.9544 64.5059 60.7945 67.1732 61.133 68.2332L58.1923 69.3746Z" fill="black"/>
<path d="M67.1452 64.7617V71.4592L71.0543 64.7617H74.625L70.5992 70.6555L74.9634 80.8124H71.3227L68.4754 73.4277L67.1452 75.3729V80.8124H63.6211V64.7617H67.1452Z" fill="black"/>
<path d="M83.2221 64.7617L87.808 80.8124H84.214L83.3971 77.5161H78.8812L78.0877 80.8124H74.832L79.6514 64.7617H83.2221ZM82.7437 74.7439L81.1333 68.1978L79.5697 74.7439H82.7437Z" fill="black"/>
<path d="M88.3478 131.422V130.397H85.6172V129.582H88.3478V128.557H89.0012V131.422H88.3478ZM85.6172 135.673V134.94H88.3478V134.928L85.6172 133.95V133.519L88.3478 132.54V132.529H85.6172V131.795H89.0012V132.983L86.9941 133.74L89.0012 134.497V135.685H85.6172V135.673Z" fill="black"/>
<path d="M0.597656 27.1621V51.6225H0.644333L19.5132 27.1621H0.597656Z" fill="black"/>
<path d="M0.644333 0H0.597656V24.4721H19.5132L0.644333 0Z" fill="black"/>
<path d="M43.9977 51.6225L62.8783 27.1621H25.1172L43.9977 51.6225Z" fill="black"/>
<path d="M87.3571 51.6225H87.3921V27.1621H68.4766L87.3571 51.6225Z" fill="black"/>
<path d="M87.3921 24.4721V0H87.3571L68.4766 24.4721H87.3921Z" fill="black"/>
<path d="M43.9977 0L25.1172 24.4721H62.8783L43.9977 0Z" fill="black"/>
<path d="M47.4141 51.6234H83.9382L65.6762 27.9434L47.4141 51.6234Z" fill="black"/>
<path d="M4.05078 51.6234H40.5866L22.3129 27.9434L4.05078 51.6234Z" fill="black"/>
</g>
<defs>
<clipPath id="clip0">
<rect width="89" height="136" fill="white"/>
</clipPath>
</defs>
</svg>
