<?xml version="1.0" encoding="utf-8"?>
<!-- Generator: Adobe Illustrator 24.1.0, SVG Export Plug-In . SVG Version: 6.00 Build 0)  -->
<svg version="1.1" id="Layer_1" xmlns="http://www.w3.org/2000/svg" xmlns:xlink="http://www.w3.org/1999/xlink" x="0px" y="0px"
	 viewBox="0 0 76.27 116.76" style="enable-background:new 0 0 76.27 116.76;" xml:space="preserve">
<style type="text/css">
	.st0{fill:#B89120;}
</style>
<g>
</g>
<g>
	<path class="st0" d="M0.51,75.55h3.98c2.66,0,7.94,0.03,7.94,8.58c0,3.26-0.96,6.18-2.84,7.61c-1.54,1.2-3.3,1.2-4.63,1.2H0.51
		V75.55z M4.2,89.94h0.65c1.51,0,3.54-0.18,3.54-5.87c0-5.35-2-5.53-3.54-5.53H4.2V89.94z"/>
	<path class="st0" d="M25.11,75.55v3h-6.64v4.02h5.13v3h-5.13v4.28h6.64v3.1H14.78v-17.4H25.11z"/>
	<path class="st0" d="M34.62,80.55c-0.21-0.63-0.7-2.16-2.45-2.16c-1.28,0-1.83,0.89-1.83,1.59c0,1.2,1.15,1.7,3,2.41
		c1.96,0.76,4.8,1.74,4.8,5.26c0,2.97-2.09,5.56-6.18,5.56c-1.25,0-3.02-0.24-4.42-1.83c-0.97-1.12-1.28-2.19-1.49-2.95l3.34-0.94
		c0.21,0.78,0.59,2.61,2.68,2.61c1.3,0,2.22-0.73,2.22-1.88c0-1.23-1.1-1.81-2.4-2.28c-2.37-0.86-5.13-1.79-5.13-5.34
		c0-2.71,1.63-5.32,5.44-5.32c4.33,0,5.24,2.9,5.61,4.04L34.62,80.55z"/>
	<path class="st0" d="M44.52,75.55v17.4h-3.67v-17.4H44.52z"/>
	<path class="st0" d="M60.02,83.66v9.28h-1.62l-0.5-1.98c-0.39,0.6-1.43,2.24-4.17,2.24c-4.33,0-6.33-3.86-6.33-8.66
		c0-2.58,0.46-9.26,6.67-9.26c4.82,0,5.6,3.44,5.94,5.95l-3.44,0.57c-0.18-1.3-0.39-3.42-2.42-3.42c-2.16,0-2.84,2.35-2.84,5.92
		c0,3.13,0.47,5.79,2.97,5.79c2.22,0,2.24-2.32,2.29-3.44h-2.61v-3H60.02z"/>
	<path class="st0" d="M67.44,75.55l4.46,10.8v-10.8h2.95v17.4h-3.39l-5.29-12.6v12.6h-2.97v-17.4H67.44z"/>
</g>
<g>
	<path d="M5.48,99.11c1.82,0,3.73,0,5.03,1.33c1.2,1.25,1.46,2.92,1.46,4.12c0,1.72-0.47,3.47-1.83,4.51
		c-1.3,1.02-3.44,1.02-4.51,1.02H4.28v6.42H0.47v-17.4H5.48z M4.28,101.92v5.16h1.2c1.33,0,2.45-0.29,2.45-2.61
		c0-2.56-1.62-2.56-2.45-2.56H4.28z"/>
	<path d="M19.66,99.11c1.75,0,3.44,0,4.77,1.49c0.91,1.02,1.25,2.4,1.25,3.78c0,3.08-1.59,4.02-2.45,4.54l3.21,7.59h-4.17
		l-2.32-6.86h-1.93v6.86h-3.81v-17.4H19.66z M18.02,101.92v4.9h1.7c1.64,0,2.24-1.07,2.24-2.5c0-2.4-1.75-2.4-2.4-2.4H18.02z"/>
	<path d="M33.47,99.11v17.4h-3.81v-17.4H33.47z"/>
	<path d="M45.17,104.12c-0.21-0.63-0.7-2.16-2.45-2.16c-1.28,0-1.83,0.89-1.83,1.59c0,1.2,1.15,1.62,3,2.32
		c1.96,0.76,4.8,1.82,4.8,5.35c0,2.97-2.09,5.55-6.18,5.55c-1.25,0-3.13-0.23-4.54-1.83c-0.96-1.12-1.28-2.19-1.49-2.95l3.34-0.94
		c0.21,0.78,0.7,2.61,2.79,2.61c1.3,0,2.22-0.73,2.22-1.88c0-1.23-1.1-1.72-2.4-2.19c-2.37-0.86-5.24-1.88-5.24-5.42
		c0-2.71,1.75-5.32,5.55-5.32c4.33,0,5.24,2.89,5.61,4.04L45.17,104.12z"/>
	<path d="M62.28,99.11v3h-6.75v4.02h5.24v3h-5.24v4.28h6.75v3.1H51.72v-17.4H62.28z"/>
	<path d="M74.83,99.11v3.26h-3.55v14.14h-3.81v-14.14h-3.47v-3.26H74.83z"/>
</g>
<g>
	<path d="M6.88,59.56c-0.16-0.5-0.56-1.71-1.94-1.71c-1.01,0-1.45,0.7-1.45,1.26c0,0.95,0.91,1.28,2.38,1.84
		c1.55,0.6,3.8,1.45,3.8,4.24c0,2.36-1.65,4.4-4.9,4.4c-0.99,0-2.48-0.19-3.6-1.45C0.41,67.25,0.17,66.4,0,65.8l2.65-0.74
		c0.17,0.62,0.56,2.07,2.21,2.07c1.03,0,1.76-0.58,1.76-1.49c0-0.97-0.87-1.36-1.9-1.74c-1.88-0.68-4.15-1.49-4.15-4.3
		c0-2.15,1.38-4.22,4.4-4.22c3.43,0,4.15,2.29,4.44,3.2L6.88,59.56z"/>
	<path d="M13.5,55.6l2.11,10.52L17.8,55.6h2.6l-3.39,13.87l-3.39-0.06l-3.31-13.8H13.5z"/>
	<path d="M30.22,55.6v2.38h-5.35v3.18h4.15v2.38h-4.15v3.39h5.35v2.46h-8.37V55.6H30.22z"/>
	<path d="M35.41,55.6l3.53,8.56V55.6h2.36v13.78h-2.71l-4.2-9.98v9.98h-2.36V55.6H35.41z"/>
	<path d="M49.87,59.56c-0.16-0.5-0.56-1.71-1.94-1.71c-1.01,0-1.45,0.7-1.45,1.26c0,0.95,0.91,1.28,2.38,1.84
		c1.55,0.6,3.8,1.45,3.8,4.24c0,2.36-1.65,4.4-4.9,4.4c-0.99,0-2.48-0.19-3.6-1.45c-0.76-0.89-1.01-1.74-1.18-2.34l2.65-0.74
		c0.17,0.62,0.56,2.07,2.21,2.07c1.03,0,1.76-0.58,1.76-1.49c0-0.97-0.87-1.36-1.9-1.74c-1.88-0.68-4.15-1.49-4.15-4.3
		c0-2.15,1.38-4.22,4.4-4.22c3.43,0,4.15,2.29,4.44,3.2L49.87,59.56z"/>
	<path d="M57.54,55.6v5.75l3.35-5.75h3.06l-3.45,5.06l3.74,8.72h-3.12l-2.44-6.34l-1.14,1.67v4.67h-3.02V55.6H57.54z"/>
	<path d="M71.32,55.6l3.93,13.78h-3.08l-0.7-2.83H67.6l-0.68,2.83h-2.79l4.13-13.78H71.32z M70.91,64.17l-1.38-5.62l-1.34,5.62
		H70.91z"/>
</g>
<g>
	<path d="M75.71,112.83v-0.88h-2.34v-0.7h2.34v-0.88h0.56v2.46H75.71z M73.37,116.48v-0.63h2.34v-0.01l-2.34-0.84v-0.37l2.34-0.84
		v-0.01h-2.34v-0.63h2.9v1.02l-1.72,0.65l1.72,0.65v1.02H73.37z"/>
</g>
<g>
	<polygon points="0.51,23.32 0.51,44.32 0.55,44.32 16.72,23.32 	"/>
	<polygon points="0.55,0 0.51,0 0.51,21.01 16.72,21.01 	"/>
	<polygon points="37.7,44.32 53.88,23.32 21.52,23.32 	"/>
	<polygon points="74.86,44.32 74.89,44.32 74.89,23.32 58.68,23.32 	"/>
	<polygon points="74.89,21.01 74.89,0 74.86,0 58.68,21.01 	"/>
	<polygon points="37.7,0 21.52,21.01 53.88,21.01 	"/>
	<polygon points="40.63,44.32 71.93,44.32 56.28,23.99 	"/>
	<polygon points="3.47,44.32 34.78,44.32 19.12,23.99 	"/>
</g>
</svg>
