<svg width="262" height="203" viewBox="0 0 262 203" fill="none" xmlns="http://www.w3.org/2000/svg">
<path d="M95.888 185.536H91.424L86.144 202H89.528L90.56 198.616H95.888L96.896 202H101.048L95.888 185.536ZM91.496 195.592L93.248 189.808L95 195.592H91.496ZM102.072 202H105.6V195.448C105.6 194.68 105.648 193.984 106.008 193.288C106.296 192.736 106.872 192.376 107.496 192.376C109.272 192.376 109.104 194.2 109.104 195.448V202H112.632V194.464C112.632 193.36 112.632 191.824 111.96 190.912C111.24 189.928 110.112 189.568 108.96 189.568C107.184 189.568 106.176 190.312 105.456 191.872H105.408V189.808H102.072V202ZM114.529 189.808V202H118.057V195.544C118.057 194.224 117.985 192.4 119.833 192.4C121.657 192.4 121.417 194.272 121.417 195.544V202H124.945V195.544C124.945 194.896 124.921 193.936 125.185 193.36C125.449 192.784 126.097 192.424 126.721 192.424C127.465 192.424 128.041 192.64 128.233 193.408C128.353 193.864 128.305 195.064 128.305 195.544V202H131.833V194.392C131.833 193.168 132.001 191.776 131.185 190.816C130.465 189.952 129.289 189.568 128.209 189.568C126.697 189.568 125.281 190.24 124.657 191.68C123.937 190.24 122.929 189.568 121.321 189.568C119.737 189.568 118.561 190.24 117.937 191.68H117.889V189.808H114.529ZM144.68 202C144.488 201.4 144.44 200.8 144.44 200.176V194.488C144.44 193.024 144.56 191.68 143.312 190.672C142.328 189.856 140.696 189.568 139.448 189.568C136.88 189.568 134 190.432 133.64 193.384L136.976 193.696C136.976 192.496 137.96 191.92 139.088 191.92C139.616 191.92 140.216 192.088 140.528 192.496C140.888 192.952 140.84 193.576 140.84 194.104V194.392C139.352 194.536 137.408 194.632 136.016 195.16C134.408 195.76 133.28 196.984 133.28 198.784C133.28 201.088 134.96 202.24 137.12 202.24C138.944 202.24 140 201.544 141.008 200.104C140.984 200.728 141.032 201.376 141.176 202H144.68ZM140.84 196.648C140.84 197.512 140.864 198.232 140.36 199C139.952 199.624 139.304 200.008 138.584 200.008C137.6 200.008 137.024 199.36 137.024 198.4C137.024 196.624 139.496 196.312 140.84 196.168V196.648ZM141.416 187.84C142.184 187.84 142.808 187.216 142.808 186.448C142.808 185.704 142.208 185.056 141.464 185.056C140.696 185.056 140.096 185.68 140.096 186.448C140.096 187.168 140.648 187.84 141.416 187.84ZM137.528 187.84C138.296 187.84 138.92 187.216 138.92 186.448C138.92 185.704 138.32 185.056 137.576 185.056C136.808 185.056 136.208 185.68 136.208 186.448C136.208 187.168 136.76 187.84 137.528 187.84ZM146.361 202H149.889V185.536H146.361V202ZM158.711 202H162.239V195.448C162.239 194.68 162.287 193.984 162.647 193.288C162.935 192.736 163.511 192.376 164.135 192.376C165.911 192.376 165.743 194.2 165.743 195.448V202H169.271V194.464C169.271 193.36 169.271 191.824 168.599 190.912C167.879 189.928 166.751 189.568 165.599 189.568C163.823 189.568 162.815 190.312 162.095 191.872H162.047V189.808H158.711V202ZM181.656 202V189.808H178.128V196.36C178.128 196.984 178.176 197.68 177.936 198.232C177.624 198.952 176.952 199.408 176.16 199.408C174.912 199.408 174.816 198.472 174.816 197.488V189.808H171.288V197.488C171.288 198.664 171.216 199.816 171.888 200.872C172.584 201.976 173.64 202.24 174.864 202.24C176.52 202.24 177.768 201.448 178.344 199.912H178.392V202H181.656Z" fill="#C29D25"/>
<path d="M1.02391 0.499992L260.976 0.49997L131 167.187L1.02391 0.499992Z" stroke="#C29D25"/>
</svg>
