<svg width="257" height="362" viewBox="0 0 257 362" fill="none" xmlns="http://www.w3.org/2000/svg">
<path d="M170.08 354.496H172.888L175.408 361H179.68L176.632 353.728C178.408 353.08 179.488 351.352 179.488 349.48C179.488 347.872 178.744 346.264 177.4 345.376C176.128 344.56 174.64 344.536 173.176 344.536H166.24V361H170.08V354.496ZM170.08 347.464H172.096C172.816 347.464 173.92 347.368 174.568 347.776C175.12 348.112 175.504 348.808 175.504 349.456C175.504 350.176 175.168 350.944 174.544 351.328C173.848 351.736 172.984 351.664 172.192 351.664H170.08V347.464ZM186.476 348.568C182.756 348.568 180.692 351.328 180.692 354.88C180.692 358.408 182.732 361.24 186.476 361.24C190.076 361.24 192.356 358.48 192.356 355C192.356 351.4 190.292 348.568 186.476 348.568ZM186.5 350.896C187.316 350.896 187.892 351.208 188.18 352C188.516 352.912 188.564 354.064 188.564 355.024C188.564 356.488 188.468 358.888 186.476 358.888C184.46 358.888 184.484 355.912 184.484 354.52C184.484 353.128 184.604 350.896 186.5 350.896ZM188.42 346.84C189.188 346.84 189.812 346.216 189.812 345.448C189.812 344.704 189.212 344.056 188.468 344.056C187.7 344.056 187.1 344.68 187.1 345.448C187.1 346.168 187.652 346.84 188.42 346.84ZM184.532 346.84C185.3 346.84 185.924 346.216 185.924 345.448C185.924 344.704 185.324 344.056 184.58 344.056C183.812 344.056 183.212 344.68 183.212 345.448C183.212 346.168 183.764 346.84 184.532 346.84ZM203.253 351.76C202.413 349.48 200.853 348.568 198.453 348.568C195.861 348.568 193.245 349.648 193.245 352.648C193.245 354.184 194.205 355.432 195.645 355.936C196.413 356.2 198.429 356.56 199.269 356.656C199.917 356.728 200.637 356.872 200.637 357.688C200.637 358.6 199.173 358.84 198.501 358.84C197.373 358.84 196.053 358.456 195.813 357.208L192.765 357.64C193.413 360.376 195.789 361.24 198.333 361.24C199.677 361.24 201.021 361 202.125 360.232C203.157 359.488 203.757 358.36 203.757 357.088C203.757 351.592 196.437 354.184 196.437 351.904C196.437 351.016 197.541 350.824 198.261 350.824C199.413 350.824 200.325 351.304 200.637 352.456L203.253 351.76ZM212.301 348.784H209.685V344.968L206.613 345.208L206.301 348.784H204.165V351.592H206.157V356.968C206.157 358.168 206.157 359.632 207.141 360.448C207.933 361.096 209.277 361.24 210.285 361.24C210.933 361.24 211.797 361.144 212.493 360.976V358.312C212.085 358.36 211.629 358.408 211.317 358.408C209.805 358.408 209.685 358.048 209.685 356.44V351.592H212.301V348.784ZM224.802 361C224.61 360.4 224.562 359.8 224.562 359.176V353.488C224.562 352.024 224.682 350.68 223.434 349.672C222.45 348.856 220.818 348.568 219.57 348.568C217.002 348.568 214.122 349.432 213.762 352.384L217.098 352.696C217.098 351.496 218.082 350.92 219.21 350.92C219.738 350.92 220.338 351.088 220.65 351.496C221.01 351.952 220.962 352.576 220.962 353.104V353.392C219.474 353.536 217.53 353.632 216.138 354.16C214.53 354.76 213.402 355.984 213.402 357.784C213.402 360.088 215.082 361.24 217.242 361.24C219.066 361.24 220.122 360.544 221.13 359.104C221.106 359.728 221.154 360.376 221.298 361H224.802ZM220.962 355.648C220.962 356.512 220.986 357.232 220.482 358C220.074 358.624 219.426 359.008 218.706 359.008C217.722 359.008 217.146 358.36 217.146 357.4C217.146 355.624 219.618 355.312 220.962 355.168V355.648ZM233.078 361H236.606V354.448C236.606 353.68 236.654 352.984 237.014 352.288C237.302 351.736 237.878 351.376 238.502 351.376C240.278 351.376 240.11 353.2 240.11 354.448V361H243.638V353.464C243.638 352.36 243.638 350.824 242.966 349.912C242.246 348.928 241.118 348.568 239.966 348.568C238.19 348.568 237.182 349.312 236.462 350.872H236.414V348.808H233.078V361ZM256.023 361V348.808H252.495V355.36C252.495 355.984 252.543 356.68 252.303 357.232C251.991 357.952 251.319 358.408 250.527 358.408C249.279 358.408 249.183 357.472 249.183 356.488V348.808H245.655V356.488C245.655 357.664 245.583 358.816 246.255 359.872C246.951 360.976 248.007 361.24 249.231 361.24C250.887 361.24 252.135 360.448 252.711 358.912H252.759V361H256.023Z" fill="white"/>
<path d="M1.45433 0.709633L256.29 0.709656L256.29 327.35L1.45433 0.709633Z" stroke="white" stroke-width="1.41989"/>
</svg>
